<svg width="147" height="193" viewBox="0 0 147 193" fill="none" xmlns="http://www.w3.org/2000/svg">
<path fill-rule="evenodd" clip-rule="evenodd" d="M23.0004 184.068L25.0004 169.568C25.1669 166.568 25.6 159.168 26 153.568C26.4367 147.455 26.1106 146.299 25.0217 142.44C24.8639 141.881 24.6899 141.265 24.5 140.568C23.3375 136.306 16.6665 121.735 13 115.068C10 108.735 3.8 94.5681 3 88.5681C2 81.0681 2 71.0681 2 65.0681C2 59.0681 3.5 49.0681 7 41.0681C10.5 33.0681 20.5 21.5681 24 19.0681C24.3288 18.8333 24.6796 18.5764 25.0583 18.2991C28.711 15.6244 34.956 11.0515 49 6.06814C64.4071 0.601093 81.7903 2.05041 87.8909 2.55904L88 2.56814C94 3.06814 101.5 6.06814 107 11.0681C111.888 15.5116 111.642 19.5602 111.527 21.4592C111.512 21.697 111.5 21.9012 111.5 22.0681C111.5 23.5681 110.5 26.5681 105 28.5681C99.5 30.5681 91.5 37.5681 91 38.0681C90.6 38.4682 86.8333 41.9015 85 43.5681C82.8333 45.4015 78.1 50.0681 76.5 54.0681C74.8787 58.1215 76.0561 58.4053 79 58.5681C79.6875 58.6062 82 58.5681 82 58.5681C86 58 95 53 97 51.0681C99.5 49 109.667 41.0681 115 37.5681C118 35.5681 120 37 121.5 38.5681C122.5 40 123.22 40.8237 124 41.5C124.124 41.6074 125.381 42.9637 125.5 43.0681C126.5 44 130.8 50.4681 132 56.0681C133.392 62.5633 139.089 64.7537 141.9 65.8347C142.119 65.9187 142.32 65.996 142.5 66.0681C145 67.0681 145 71.5681 144.5 73.5681C144 75.5681 143.5 77.0681 140 79.0681C135.761 81.4905 126.333 80.4014 122.5 79.5681C121.167 79.4014 118.6 80.1681 119 84.5681C119.416 89.1396 123.286 89.5659 126.016 89.8667C126.57 89.9278 127.078 89.9837 127.5 90.0681C130 90.5681 131.5 93.5681 131.5 93.5681C131.5 93.5681 133 96.0681 133.5 97.0681C133.634 97.3368 133.877 97.6415 134.141 97.9726C134.858 98.874 135.731 99.9711 135 101.068C134.197 102.272 133.072 102.51 131.625 102.815C131.269 102.89 130.894 102.969 130.5 103.068C128.5 103.568 125 103.068 123 102.568C121.4 102.168 120 103.068 119.5 103.568C118.5 104.568 116.5 106.568 116 110.068C115.5 113.568 116 116.068 118.5 118.068C120.549 119.707 121.926 117.988 122.907 116.764C123.123 116.494 123.32 116.249 123.5 116.068C124.3 115.268 125.5 115.401 126 115.568C127.167 115.735 129.9 116.868 131.5 120.068C133.5 124.068 131.5 127.068 128.5 129.068C126.1 130.668 121.5 131.068 119.5 131.068C118 131.401 115.2 132.968 116 136.568C116.956 140.869 119.739 141.973 122.166 142.935L122.171 142.937C122.282 142.981 122.391 143.025 122.5 143.068C125 144.068 125.5 147.568 125.5 150.068C125.5 152.568 125 156.068 123 159.068C121 162.068 115.5 164.568 111.5 164.568C108.3 164.568 104.5 163.901 103 163.568C100.5 162.568 93.8 160.568 87 160.568C80.2 160.568 78.5 165.901 78.5 168.568V178.068C78.5 180.068 78.5 181.568 69.5 186.568C61.814 190.838 41.7298 190.368 31.9807 190.139C30.314 190.1 28.9494 190.068 28.0004 190.068C22.8004 190.068 22.5004 186.068 23.0004 184.068ZM48.5 69.5681C48.5 62.3884 54.3203 56.5681 61.5 56.5681C68.6797 56.5681 74.5 62.3884 74.5 69.5681C74.5 76.7478 68.6797 82.5681 61.5 82.5681C54.3203 82.5681 48.5 76.7478 48.5 69.5681Z" fill="#97CACE" stroke="#97CACE" stroke-width="4"/>
<circle cx="136.5" cy="13.5681" r="10" fill="#97CACE" stroke="#97CACE"/>
</svg>
