<svg width="325" height="351" viewBox="0 0 325 351" fill="none" xmlns="http://www.w3.org/2000/svg">
<ellipse cx="158" cy="325" rx="158" ry="26" fill="#A8CED1"/>
<path d="M122.689 92.11C185.023 77.0714 309.689 86.3954 309.689 244" stroke="#A8CED1" stroke-width="2" stroke-dasharray="5 5"/>
<path d="M226.291 116.759L225.291 117.68L226.469 118.361L229.493 120.107L229.973 120.384L230.462 120.124L244.518 112.652L252.354 117.176C254.088 118.177 256.297 117.585 257.298 115.852C258.299 114.118 257.707 111.909 255.973 110.908L248.137 106.384L247.58 90.4755L247.56 89.9216L247.08 89.6445L244.056 87.8984L242.878 87.2183L242.58 88.5455L239.674 101.498L232.969 97.6263L232.506 93.7889L232.447 93.2925L232.014 93.0425L229.745 91.733L228.597 91.0701L228.275 92.3562L226.801 98.2444L222.439 102.465L221.486 103.387L222.634 104.05L224.902 105.359L225.335 105.609L225.795 105.413L229.35 103.895L236.055 107.766L226.291 116.759Z" fill="#A8CED1" stroke="#DEEDEE" stroke-width="2"/>
<path d="M159.821 0H53.1554C39.8147 0 29 10.3017 29 23.0094V304.948C29 317.655 39.8147 327.957 53.1554 327.957H159.821C173.161 327.957 183.976 317.655 183.976 304.948V23.0094C183.976 10.3017 173.161 0 159.821 0Z" fill="#73B1B5"/>
<path d="M158.305 2.63586H64.3275C51.6933 2.63586 41.4512 12.3817 41.4512 24.4037V303.738C41.4512 315.76 51.6933 325.506 64.3275 325.506H158.305C170.939 325.506 181.181 315.76 181.181 303.738V24.4037C181.181 12.3817 170.939 2.63586 158.305 2.63586Z" fill="#A8CED1"/>
<path d="M175.255 25.0047V303.15C175.255 312.582 168.452 320.235 160.044 320.235H61.8044C53.4242 320.235 46.5928 312.582 46.5928 303.15V25.0047C46.5928 15.5592 53.3965 7.9071 61.8044 7.9071H74.596C75.0315 7.94106 75.4355 8.13865 75.7203 8.45702C76.0051 8.77538 76.1477 9.18882 76.1171 9.60757V11.0822C76.1171 15.8249 79.5328 19.6642 83.7367 19.6642H138.208C142.44 19.6642 145.856 15.8249 145.856 11.0822V9.60757C145.825 9.19094 145.965 8.77936 146.247 8.46136C146.529 8.14336 146.93 7.94435 147.363 7.9071H160.141C168.452 7.9071 175.255 15.5592 175.255 25.0047Z" fill="#C9E0E2"/>
<rect x="53.3425" y="103.023" width="115.033" height="9.33174" rx="1.5" fill="#73B1B5" stroke="#73B1B5"/>
<path d="M106.671 234.174C106.671 225.579 99.043 222.978 95.2288 222.757L234.846 223.082C246.145 223.082 249.165 229.584 249.309 232.834V321.544H127.865C127.865 324.574 126.185 332.298 117.099 332.298C109.835 332.298 107.114 325.796 106.684 322.558L106.671 234.174Z" fill="white"/>
<path d="M63.6083 117.936C63.6083 110.134 58.4012 106.844 55.7976 106.168C97.9626 105.947 184.584 105.492 193.787 105.492C202.991 105.492 205.894 112.215 206.232 115.583V222.783L94.8773 223.108C87.6134 223.108 85.3483 229.61 85.127 232.861V296.369L83.4477 301.077C82.992 302.65 80.3494 305.784 73.3458 305.784C66.3422 305.784 63.9339 298.606 63.5954 295.03L63.6083 117.936Z" fill="white"/>
<path d="M160.501 157.584H85.8169V162.954H160.501V157.584Z" fill="#F7F7F7"/>
<path d="M184.05 122.644H85.8169V128.014H184.05V122.644Z" fill="#F7F7F7"/>
<path d="M227.113 244.967H128.88V250.337H227.113V244.967Z" fill="#F7F7F7"/>
<path d="M227.113 255.708H128.88V261.078H227.113V255.708Z" fill="#F7F7F7"/>
<path d="M184.05 122.644H85.8169V138.768H184.05V122.644Z" fill="#F7F7F7"/>
<path d="M160.501 173.721H85.8169V179.091H160.501V173.721Z" fill="#F7F7F7"/>
<path d="M160.501 189.845H85.8169V195.216H160.501V189.845Z" fill="#F7F7F7"/>
<path d="M160.501 205.983H85.8169V211.353H160.501V205.983Z" fill="#F7F7F7"/>
<path d="M166.554 271.845H128.88V277.215H166.554V271.845Z" fill="#F7F7F7"/>
<path d="M166.554 282.599H128.88V287.969H166.554V282.599Z" fill="#F7F7F7"/>
<path d="M166.554 293.352H128.88V298.723H166.554V293.352Z" fill="#F7F7F7"/>
<path d="M153.77 304.106H128.88V309.477H153.77V304.106Z" fill="#F7F7F7"/>
<path d="M208.263 309.477C218.666 309.477 227.1 301.053 227.1 290.661C227.1 280.269 218.666 271.845 208.263 271.845C197.86 271.845 189.426 280.269 189.426 290.661C189.426 301.053 197.86 309.477 208.263 309.477Z" fill="#FFC67A"/>
<path d="M128.529 321.297C128.432 323.602 127.688 325.834 126.38 327.736C125.072 329.638 123.254 331.134 121.134 332.051V332.389H255.7C268.614 332.389 271.4 325.003 271.179 321.297H128.529Z" fill="#C9E0E2"/>
<path d="M106.672 306.785H77.0688C81.1044 304.77 83.9032 299.75 84.8015 297.046L85.14 233.836C84.6843 231.131 85.5435 224.733 93.8879 223.108C102.232 221.483 105.995 228.661 106.672 232.21V306.785Z" fill="#C9E0E2"/>
<path fill-rule="evenodd" clip-rule="evenodd" d="M195.48 105.167C198.512 105.167 201.421 106.369 203.566 108.51C205.712 110.651 206.919 113.555 206.922 116.584V222.107H238.543C241.578 222.107 244.488 223.311 246.634 225.455C248.78 227.598 249.985 230.505 249.985 233.537V320.907H271.517V321.57C271.517 324.601 270.311 327.509 268.166 329.652C266.02 331.796 263.109 333 260.074 333H117.437C115.934 333.002 114.445 332.707 113.056 332.133C111.667 331.56 110.405 330.718 109.342 329.656C108.279 328.594 107.437 327.334 106.862 325.946C106.288 324.559 105.993 323.072 105.995 321.57V233.537C106.043 232.182 105.818 230.831 105.333 229.565C104.847 228.299 104.112 227.144 103.169 226.169C102.227 225.193 101.098 224.417 99.8486 223.887C98.5995 223.357 97.2563 223.084 95.8992 223.084C94.5421 223.084 93.1989 223.357 91.9498 223.887C90.7007 224.417 89.5713 225.193 88.629 226.169C87.6868 227.144 86.9509 228.299 86.4655 229.565C85.9801 230.831 85.7551 232.182 85.8038 233.537V295.368C85.8042 297.437 85.2425 299.466 84.1788 301.241C83.115 303.016 81.589 304.469 79.7635 305.446H104.654V306.746H74.3741C72.872 306.748 71.3843 306.454 69.9961 305.881C68.6079 305.308 67.3464 304.467 66.2837 303.407C65.221 302.346 64.3778 301.087 63.8026 299.701C63.2274 298.315 62.9314 296.83 62.9314 295.329V116.584C62.9314 113.911 61.8684 111.348 59.9764 109.458C58.0844 107.568 55.5183 106.506 52.8425 106.506V105.206L195.48 105.167ZM248.632 320.907V233.537C248.633 232.212 248.374 230.9 247.867 229.676C247.361 228.452 246.618 227.34 245.681 226.402C244.744 225.465 243.632 224.722 242.407 224.214C241.182 223.707 239.869 223.446 238.543 223.446H101.295C103.122 224.425 104.648 225.88 105.712 227.657C106.776 229.434 107.337 231.466 107.335 233.537V321.57C107.335 324.25 108.401 326.82 110.298 328.714C112.195 330.609 114.768 331.674 117.45 331.674C120.133 331.674 122.706 330.609 124.603 328.714C126.5 326.82 127.565 324.25 127.565 321.57V320.907H248.632ZM96.9081 222.081H205.568V116.584C205.568 113.911 204.505 111.348 202.613 109.458C200.721 107.568 198.155 106.506 195.48 106.506H58.232C60.0575 107.483 61.5834 108.936 62.6471 110.711C63.7109 112.486 64.2725 114.515 64.2722 116.584V295.368C64.3661 297.98 65.4709 300.453 67.3539 302.268C69.2368 304.083 71.7512 305.097 74.3676 305.097C76.984 305.097 79.4984 304.083 81.3814 302.268C83.2644 300.453 84.3691 297.98 84.463 295.368V233.537C84.4612 232.035 84.7561 230.548 85.3305 229.161C85.905 227.773 86.7477 226.512 87.8106 225.451C88.8735 224.389 90.1357 223.547 91.5248 222.973C92.9138 222.4 94.4026 222.105 95.9057 222.107C96.2442 222.107 96.5826 222.12 96.9081 222.146V222.081ZM128.906 322.207H270.15C269.979 324.76 268.842 327.152 266.972 328.9C265.101 330.648 262.636 331.621 260.074 331.622H122.84C124.567 330.705 126.032 329.363 127.093 327.722C128.155 326.081 128.779 324.196 128.906 322.246V322.207Z" fill="#73B1B5"/>
<path d="M215.631 295.641C215.631 292.286 213.6 290.856 209.656 289.764V281.754C211.069 282.043 212.357 282.765 213.34 283.821C213.37 283.864 213.41 283.899 213.456 283.923C213.503 283.948 213.554 283.96 213.607 283.96C213.659 283.96 213.711 283.948 213.757 283.923C213.804 283.899 213.844 283.864 213.874 283.821L214.798 282.794C214.834 282.761 214.863 282.721 214.883 282.676C214.903 282.631 214.913 282.583 214.913 282.534C214.913 282.485 214.903 282.436 214.883 282.392C214.863 282.347 214.834 282.307 214.798 282.274C213.448 280.823 211.625 279.901 209.656 279.673V277.514C209.656 277.241 209.461 277.111 209.239 277.202L207.781 277.723C207.696 277.757 207.622 277.816 207.571 277.893C207.52 277.969 207.494 278.06 207.495 278.152V279.686C203.967 279.933 201.142 282.131 201.142 285.629C201.142 289.127 204.071 290.531 207.495 291.441V299.633C206.396 299.532 205.327 299.214 204.353 298.696C203.378 298.178 202.517 297.471 201.819 296.617C201.788 296.574 201.747 296.539 201.699 296.514C201.652 296.49 201.599 296.478 201.546 296.478C201.492 296.478 201.44 296.49 201.392 296.514C201.345 296.539 201.304 296.574 201.272 296.617L200.283 297.618C200.247 297.651 200.218 297.691 200.198 297.736C200.178 297.78 200.168 297.829 200.168 297.878C200.168 297.927 200.178 297.975 200.198 298.02C200.218 298.065 200.247 298.105 200.283 298.138C201.178 299.2 202.283 300.067 203.528 300.685C204.773 301.302 206.132 301.657 207.521 301.727V303.82C207.519 303.87 207.528 303.92 207.546 303.967C207.564 304.013 207.592 304.056 207.627 304.091C207.663 304.126 207.705 304.154 207.752 304.172C207.798 304.191 207.848 304.199 207.898 304.197H209.304C209.354 304.199 209.404 304.191 209.451 304.172C209.498 304.154 209.54 304.126 209.575 304.091C209.611 304.056 209.638 304.013 209.657 303.967C209.675 303.92 209.684 303.87 209.682 303.82V301.701C214.147 301.142 215.631 298.19 215.631 295.641ZM203.342 285.434C203.342 283.392 204.956 281.91 207.495 281.663V289.218C205.282 288.567 203.381 287.631 203.381 285.434H203.342ZM209.656 291.935C212.259 292.754 213.431 293.665 213.431 295.732C213.431 297.8 212.129 299.178 209.656 299.516V291.935Z" fill="white"/>
<path d="M176.369 162.72L173.427 159.781L172.438 160.769L176.343 164.67L184.792 156.244L183.79 155.256L176.369 162.72Z" fill="#DEEDEE"/>
<path d="M176.369 178.883L173.427 175.944L172.438 176.946L176.343 180.847L184.792 172.407L183.79 171.419L176.369 178.883Z" fill="#DEEDEE"/>
<path d="M176.369 195.046L173.427 192.121L172.438 193.109L176.343 197.01L184.792 188.571L183.79 187.583L176.369 195.046Z" fill="#DEEDEE"/>
<path d="M176.369 211.21L173.427 208.284L172.438 209.272L176.343 213.173L184.792 204.747L183.79 203.759L176.369 211.21Z" fill="#DEEDEE"/>
<path fill-rule="evenodd" clip-rule="evenodd" d="M309.189 247.583C304.191 247.583 300.148 251.626 300.148 256.625C300.148 263.406 309.189 273.417 309.189 273.417C309.189 273.417 318.231 263.406 318.231 256.625C318.231 251.626 314.188 247.583 309.189 247.583ZM302.731 256.625C302.731 253.06 305.624 250.167 309.189 250.167C312.754 250.167 315.648 253.06 315.648 256.625C315.648 260.345 311.928 265.912 309.189 269.387C306.503 265.938 302.731 260.306 302.731 256.625ZM305.96 256.625C305.96 254.842 307.406 253.396 309.189 253.396C310.343 253.396 311.409 254.011 311.986 255.01C312.563 256.01 312.563 257.241 311.986 258.24C311.409 259.239 310.343 259.854 309.189 259.854C307.406 259.854 305.96 258.408 305.96 256.625Z" fill="#A8CED1"/>
</svg>
