<svg width="105" height="137" viewBox="0 0 105 137" fill="none" xmlns="http://www.w3.org/2000/svg">
<path d="M16.8238 130.613L18.2356 120.37C18.3531 118.251 18.6588 113.023 18.9412 109.067C19.2941 104.123 18.9412 103.769 17.8824 99.8843C17.0618 96.8733 12.3528 86.5804 9.76471 81.8711C7.64706 77.3973 3.27059 67.39 2.70588 63.1516C2 57.8536 2 50.7896 2 46.5512C2 42.3128 3.05882 35.2488 5.52941 29.5976C8 23.9465 15.0588 15.8229 17.5294 14.0569C20 12.2909 24.2353 8.75891 35.1765 4.87372C46.0521 1.01181 58.3226 2.03561 62.6289 2.39491L62.7059 2.40133C66.9412 2.75453 72.2353 4.87372 76.1176 8.40571C80 11.9377 79.2941 15.1165 79.2941 16.1761C79.2941 17.2357 78.3402 18.8022 74.7059 20.7677C71.5294 22.4855 65.1765 27.1252 64.8235 27.4785C64.5412 27.7611 61.4187 30.5428 60.5882 31.3637C56.7059 35.2007 55.7176 35.9552 54.5882 38.7808C53.1765 42.3128 55.6534 42.3601 58.4706 41.9596C61.2941 41.5583 67.0714 38.2046 69.0588 36.6135C70.8235 35.2007 78 29.5976 81.7647 27.1252C83.8824 25.7125 85.4967 27.0136 86.3529 27.8316C87.4118 28.8431 88.2541 29.9027 89.1765 31.0104C90.3529 32.4232 92.9176 36.2378 93.7647 40.1936C94.8235 45.1384 99.4118 46.5512 101.176 47.2576C102.941 47.964 102.941 51.1428 102.588 52.5556C102.235 53.9684 101.882 55.028 99.4118 56.4408C96.4193 58.1519 89.7647 57.3826 87.0588 56.794C86.1177 56.6762 84.3059 57.2178 84.5882 60.3259C84.9412 64.2111 88.8235 63.8579 90.5882 64.2111C92.3529 64.5643 93.4118 66.6836 93.4118 66.6836C93.4118 66.6836 94.4706 68.4496 94.8235 69.156C95.1765 69.8624 96.5882 70.9219 95.8824 71.9815C95.1765 73.0411 94.1177 73.0411 92.7059 73.3943C91.2941 73.7475 88.8235 73.3943 87.4118 73.0411C86.2824 72.7586 85.2941 73.3943 84.9412 73.7475C84.2353 74.4539 82.8235 75.8667 82.4706 78.3391C82.1176 80.8115 82.4706 82.5775 84.2353 83.9903C86 85.4031 87.0588 83.2839 87.7647 82.5775C88.3294 82.0124 89.1765 82.1066 89.5294 82.2243C90.3529 82.3421 92.2824 83.1426 93.4118 85.4031C94.8235 88.2287 93.4118 90.3479 91.2941 91.7607C89.6 92.8909 86.3529 93.1735 84.9412 93.1735C83.8824 93.409 81.9059 94.5157 82.4706 97.0587C83.1765 100.237 85.2941 100.944 87.0588 101.65C88.8235 102.357 89.1765 104.829 89.1765 106.595C89.1765 108.361 88.8235 110.833 87.4118 112.953C86 115.072 82.1176 116.838 79.2941 116.838C77.0353 116.838 74.3529 116.367 73.2941 116.131C71.5294 115.425 66.8 114.012 62 114.012C57.2 114.012 56 117.78 56 119.663V126.374C56 127.787 56 128.847 49.6471 132.379C43.2941 135.911 24.9415 134.851 20.3532 134.851C16.6826 134.851 16.4709 132.025 16.8238 130.613Z" stroke="#000000" stroke-width="3"/>
<ellipse cx="44" cy="49.73" rx="7.05882" ry="7.06398" fill="#000000"/>
<ellipse cx="96.9411" cy="10.1716" rx="7.05882" ry="7.06398" fill="#000000"/>
</svg>
