<svg width="133" height="134" viewBox="0 0 133 134" fill="none" xmlns="http://www.w3.org/2000/svg">
<path d="M92.8118 67.2628L67.2495 90.9043C66.7391 91.3764 66.708 92.173 67.1801 92.6834L92.5446 120.109C99.5452 127.678 111.356 128.139 118.926 121.139C126.495 114.138 126.956 102.327 119.955 94.7575L94.5909 67.3322C94.1188 66.8218 93.3223 66.7907 92.8118 67.2628Z" stroke="#007079" stroke-width="3"/>
<path d="M75.252 85.5928L41.6199 49.2284C41.3581 48.9453 41.0201 48.744 40.6466 48.6486L31.9486 46.4266C31.4578 46.3012 31.0328 45.9942 30.7595 45.5675L16.3953 23.1413C15.8727 22.3253 16.0101 21.2522 16.7215 20.5943L26.2999 11.7355C27.0017 11.0865 28.0647 11.0248 28.8369 11.5883L50.3945 27.3213C50.836 27.6435 51.1264 28.1323 51.1981 28.6741L52.3987 37.736C52.4539 38.1524 52.6387 38.5408 52.927 38.8462L86.8922 74.8273" stroke="#007079" stroke-width="3"/>
<path d="M67.4163 53.8553L77.2574 44.4493C73.7948 38.3655 72.1592 25.3873 81.5258 16.4348C94.284 4.24088 107.558 10.9006 109.316 11.5501C110.407 11.9528 110.038 12.3053 109.301 13.0102L96.0251 25.6987C94.255 27.3905 95.4967 29.5756 96.3389 30.4567L99.2261 33.4775L102.053 36.4355C102.958 37.4576 105.232 39.0572 107.093 37.2787C108.954 35.5002 116.719 28.0786 120.369 24.5902C121.219 23.7771 121.56 23.3142 122.166 24.9945C123.116 27.6247 128.563 40.1058 115.805 52.2998C106.438 61.2523 93.4708 58.7886 87.2672 54.8127L77.3714 64.271" stroke="#007079" stroke-width="3"/>
<path d="M65.5839 76.3653L55.7427 85.7712C59.2054 91.855 60.841 104.833 51.4743 113.786C38.7161 125.98 25.4423 119.32 23.6838 118.67C22.5932 118.268 22.962 117.915 23.6995 117.21L36.975 104.522C38.7451 102.83 37.5034 100.645 36.6613 99.7639L33.774 96.743L30.9468 93.785C30.0423 92.7629 27.7679 91.1634 25.9071 92.9419C24.0464 94.7204 16.2815 102.142 12.6316 105.63C11.7809 106.443 11.4404 106.906 10.8339 105.226C9.88461 102.596 4.43718 90.1147 17.1953 77.9207C26.562 68.9682 39.5294 71.432 45.7329 75.4078L55.6288 65.9496" stroke="#007079" stroke-width="3"/>
</svg>
